<svg version="1.1" xmlns="http://www.w3.org/2000/svg" xmlns:xlink="http://www.w3.org/1999/xlink" width="323.736328125" height="348"><defs/><g><text fill="#eeeeee" stroke="none" font-family="Arial" font-size="24px" font-style="normal" font-weight="normal" text-decoration="none" x="0" y="0"></text><text fill="#eeeeee" stroke="none" font-family="Arial" font-size="24px" font-style="normal" font-weight="normal" text-decoration="none" x="0" y="30"></text><text fill="#eeeeee" stroke="none" font-family="Arial" font-size="24px" font-style="normal" font-weight="normal" text-decoration="none" x="0" y="60"></text><text fill="#eeeeee" stroke="none" font-family="Arial" font-size="24px" font-style="normal" font-weight="normal" text-decoration="none" x="0" y="90"></text><text fill="#eeeeee" stroke="none" font-family="Arial" font-size="24px" font-style="normal" font-weight="normal" text-decoration="none" x="0" y="120"></text><text fill="#eeeeee" stroke="none" font-family="Arial" font-size="24px" font-style="normal" font-weight="normal" text-decoration="none" x="0" y="150"></text><text fill="#eeeeee" stroke="none" font-family="Arial" font-size="24px" font-style="normal" font-weight="normal" text-decoration="none" x="0" y="180"></text><text fill="#eeeeee" stroke="none" font-family="Arial" font-size="24px" font-style="normal" font-weight="normal" text-decoration="none" x="0" y="210"></text><text fill="#eeeeee" stroke="none" font-family="Arial" font-size="24px" font-style="normal" font-weight="normal" text-decoration="none" x="0" y="240"></text><text fill="#eeeeee" stroke="none" font-family="Arial" font-size="24px" font-style="normal" font-weight="normal" text-decoration="none" x="0" y="270"></text><text fill="#eeeeee" stroke="none" font-family="Arial" font-size="24px" font-style="normal" font-weight="normal" text-decoration="none" x="0" y="300"></text><text fill="#eeeeee" stroke="none" font-family="Arial" font-size="24px" font-style="normal" font-weight="normal" text-decoration="none" x="0" y="330"></text><text fill="#eeeeee" stroke="none" font-family="Arial" font-size="24px" font-style="normal" font-weight="normal" text-decoration="none" x="200" y="0"></text><text fill="#eeeeee" stroke="none" font-family="Arial" font-size="24px" font-style="normal" font-weight="normal" text-decoration="none" x="200" y="30"></text><text fill="#eeeeee" stroke="none" font-family="Arial" font-size="24px" font-style="normal" font-weight="normal" text-decoration="none" x="200" y="60"></text><text fill="#eeeeee" stroke="none" font-family="Arial" font-size="24px" font-style="normal" font-weight="normal" text-decoration="none" x="200" y="90"></text><text fill="#eeeeee" stroke="none" font-family="Arial" font-size="24px" font-style="normal" font-weight="normal" text-decoration="none" x="200" y="120"></text><text fill="#eeeeee" stroke="none" font-family="Arial" font-size="24px" font-style="normal" font-weight="normal" text-decoration="none" x="200" y="150"></text><text fill="#eeeeee" stroke="none" font-family="Arial" font-size="24px" font-style="normal" font-weight="normal" text-decoration="none" x="200" y="180"></text><text fill="#eeeeee" stroke="none" font-family="Arial" font-size="24px" font-style="normal" font-weight="normal" text-decoration="none" x="200" y="210"></text><text fill="#eeeeee" stroke="none" font-family="Arial" font-size="24px" font-style="normal" font-weight="normal" text-decoration="none" x="200" y="240"></text><text fill="#eeeeee" stroke="none" font-family="Arial" font-size="24px" font-style="normal" font-weight="normal" text-decoration="none" x="200" y="270"></text><text fill="#eeeeee" stroke="none" font-family="Arial" font-size="24px" font-style="normal" font-weight="normal" text-decoration="none" x="200" y="300"></text><text fill="#eeeeee" stroke="none" font-family="Arial" font-size="24px" font-style="normal" font-weight="normal" text-decoration="none" x="200" y="330"></text><g transform="translate(-158,-30) scale(1,1)"><rect fill="#C0C0C0" stroke="none" x="175" y="47" width="71.736328125" height="39" opacity="0.2"/></g><g transform="translate(-158,-30) scale(1,1)"><rect fill="#ffffff" stroke="none" x="168" y="40" width="71.736328125" height="39"/></g><g transform="translate(-158,-30) scale(1,1)"><path fill="none" stroke="#000000" d="M 168 40 L 239.736328125 40 L 239.736328125 79 L 168 79 L 168 40 Z Z" stroke-miterlimit="10"/></g><g transform="translate(-158,-30) scale(1,1)"><g><path fill="none" stroke="none"/><text fill="#000000" stroke="none" font-family="Arial" font-size="13px" font-style="normal" font-weight="bold" text-decoration="none" x="187.25" y="59.5">Client</text></g></g><g transform="translate(-158,-30) scale(1,1)"><path fill="none" stroke="#000000" d="M 204.5 80 L 204.5 366" stroke-miterlimit="10" stroke-dasharray="3"/></g><g transform="translate(-158,-30) scale(1,1)"><rect fill="#C0C0C0" stroke="none" x="407" y="47" width="71.736328125" height="39" opacity="0.2"/></g><g transform="translate(-158,-30) scale(1,1)"><rect fill="#ffffff" stroke="none" x="400" y="40" width="71.736328125" height="39"/></g><g transform="translate(-158,-30) scale(1,1)"><path fill="none" stroke="#000000" d="M 400 40 L 471.736328125 40 L 471.736328125 79 L 400 79 L 400 40 Z Z" stroke-miterlimit="10"/></g><g transform="translate(-158,-30) scale(1,1)"><g><path fill="none" stroke="none"/><text fill="#000000" stroke="none" font-family="Arial" font-size="13px" font-style="normal" font-weight="bold" text-decoration="none" x="416.7236328125" y="59.5">Server</text></g></g><g transform="translate(-158,-30) scale(1,1)"><path fill="none" stroke="#000000" d="M 436.5 80 L 436.5 368" stroke-miterlimit="10" stroke-dasharray="3"/></g><g transform="translate(-158,-30) scale(1,1)"><path fill="none" stroke="#000000" d="M 204 98 L 429 98" stroke-miterlimit="10"/></g><g transform="translate(-158,-30) scale(1,1)"><path fill="#000000" stroke="none" d="M 418.83732514237585 102.20951775601598 L 429 98 L 418.83732514237585 93.79048224398402"/></g><g transform="translate(-158,-30) scale(1,1)"><path fill="none" stroke="#000000" d="M 418.83732514237585 102.20951775601598 L 429 98 L 418.83732514237585 93.79048224398402 L 418.83732514237585 102.20951775601598" stroke-miterlimit="10"/></g><g transform="translate(-158,-30) scale(1,1)"><g><path fill="none" stroke="none"/><text fill="#000000" stroke="none" font-family="Arial" font-size="13px" font-style="normal" font-weight="normal" text-decoration="none" x="259.5" y="94.5">1 : open connection</text></g></g><g transform="translate(-158,-30) scale(1,1)"><rect fill="#ffffff" stroke="none" x="429" y="98" width="13" height="38"/></g><g transform="translate(-158,-30) scale(1,1)"><path fill="none" stroke="#000000" d="M 429 98 L 442 98 L 442 136 L 429 136 L 429 98 Z Z" stroke-miterlimit="10"/></g><g transform="translate(-158,-30) scale(1,1)"><path fill="none" stroke="#000000" d="M 436 136 L 210 136" stroke-miterlimit="10"/></g><g transform="translate(-158,-30) scale(1,1)"><path fill="#000000" stroke="none" d="M 220.16267485762415 131.790482243984 L 210 136 L 220.16267485762415 140.209517756016"/></g><g transform="translate(-158,-30) scale(1,1)"><path fill="none" stroke="#000000" d="M 220.16267485762415 131.790482243984 L 210 136 L 220.16267485762415 140.209517756016 L 220.16267485762415 131.790482243984" stroke-miterlimit="10"/></g><g transform="translate(-158,-30) scale(1,1)"><g><path fill="none" stroke="none"/><text fill="#000000" stroke="none" font-family="Arial" font-size="13px" font-style="normal" font-weight="normal" text-decoration="none" x="272.476806640625" y="131.5">2 : files available</text></g></g><g transform="translate(-158,-30) scale(1,1)"><rect fill="#ffffff" stroke="none" x="197" y="136" width="13" height="56"/></g><g transform="translate(-158,-30) scale(1,1)"><path fill="none" stroke="#000000" d="M 197 136 L 210 136 L 210 192 L 197 192 L 197 136 Z Z" stroke-miterlimit="10"/></g><g transform="translate(-158,-30) scale(1,1)"><path fill="none" stroke="#000000" d="M 204 192 L 429 192" stroke-miterlimit="10"/></g><g transform="translate(-158,-30) scale(1,1)"><path fill="#000000" stroke="none" d="M 418.83732514237585 196.209517756016 L 429 192 L 418.83732514237585 187.790482243984"/></g><g transform="translate(-158,-30) scale(1,1)"><path fill="none" stroke="#000000" d="M 418.83732514237585 196.209517756016 L 429 192 L 418.83732514237585 187.790482243984 L 418.83732514237585 196.209517756016" stroke-miterlimit="10"/></g><g transform="translate(-158,-30) scale(1,1)"><g><path fill="none" stroke="none"/><text fill="#000000" stroke="none" font-family="Arial" font-size="13px" font-style="normal" font-weight="normal" text-decoration="none" x="278.9208984375" y="185.5">3 : filename</text></g></g><g transform="translate(-158,-30) scale(1,1)"><rect fill="#ffffff" stroke="none" x="429" y="192" width="13" height="28"/></g><g transform="translate(-158,-30) scale(1,1)"><path fill="none" stroke="#000000" d="M 429 192 L 442 192 L 442 220 L 429 220 L 429 192 Z Z" stroke-miterlimit="10"/></g><g transform="translate(-158,-30) scale(1,1)"><path fill="none" stroke="#000000" d="M 429 219 L 210 219" stroke-miterlimit="10"/></g><g transform="translate(-158,-30) scale(1,1)"><path fill="#000000" stroke="none" d="M 220.16267485762415 214.790482243984 L 210 219 L 220.16267485762415 223.209517756016"/></g><g transform="translate(-158,-30) scale(1,1)"><path fill="none" stroke="#000000" d="M 220.16267485762415 214.790482243984 L 210 219 L 220.16267485762415 223.209517756016 L 220.16267485762415 214.790482243984" stroke-miterlimit="10"/></g><g transform="translate(-158,-30) scale(1,1)"><g><path fill="none" stroke="none"/><text fill="#000000" stroke="none" font-family="Arial" font-size="13px" font-style="normal" font-weight="normal" text-decoration="none" x="294.7626953125" y="235.5">4 : FILE</text></g></g><g transform="translate(-158,-30) scale(1,1)"><rect fill="#ffffff" stroke="none" x="197" y="219" width="13" height="96"/></g><g transform="translate(-158,-30) scale(1,1)"><path fill="none" stroke="#000000" d="M 197 219 L 210 219 L 210 315 L 197 315 L 197 219 Z Z" stroke-miterlimit="10"/></g><g transform="translate(-158,-30) scale(1,1)"><path fill="none" stroke="#000000" d="M 210 304 L 240 304 L 240 324 L 210 324" stroke-miterlimit="10"/></g><g transform="translate(-158,-30) scale(1,1)"><path fill="#000000" stroke="none" d="M 220.16267485762415 319.790482243984 L 210 324 L 220.16267485762415 328.209517756016"/></g><g transform="translate(-158,-30) scale(1,1)"><path fill="none" stroke="#000000" d="M 220.16267485762415 319.790482243984 L 210 324 L 220.16267485762415 328.209517756016 L 220.16267485762415 319.790482243984" stroke-miterlimit="10"/></g><g transform="translate(-158,-30) scale(1,1)"><g><path fill="none" stroke="none"/><text fill="#000000" stroke="none" font-family="Arial" font-size="13px" font-style="normal" font-weight="normal" text-decoration="none" x="262.5" y="319.5">5 : close connection</text></g></g><g transform="translate(-158,-30) scale(1,1)"><rect fill="#ffffff" stroke="none" x="197" y="324" width="13" height="28"/></g><g transform="translate(-158,-30) scale(1,1)"><path fill="none" stroke="#000000" d="M 197 324 L 210 324 L 210 352 L 197 352 L 197 324 Z Z" stroke-miterlimit="10"/></g></g></svg>